PathFileType	4	(X/Y/Z)	C:/Users/opensim2020/Desktop/walking_exp_matlab/subject06_walking21_straight_04.trc																																																																																																																																		
DataRate	CameraRate	NumFrames	NumMarkers	Units	OrigDataRate	OrigDataStartFrame	OrigNumFrames																																																																																																																														
100	100	7	44	mm	100	2361	104																																																																																																																														
Frame#	Time	LFHD			RFHD			LBHD			RBHD			C7			T10			CLAV			STRN			RBAK			LSHO			LUPA			LELB			LFRM			LWRA			LWRB			LFIN			RSHO			RUPA			RELB			RFRM			RWRA			RWRB			RFIN			LASI			RASI			LPSI			RPSI			LTHI			LKNE			LTIB			LANK			LHEE			LTOE			RTHI			RKNE			RTIB			RANK			RHEE			RTOE			*39			*40			*41			*42			*43		
		X1	Y1	Z1	X2	Y2	Z2	X3	Y3	Z3	X4	Y4	Z4	X5	Y5	Z5	X6	Y6	Z6	X7	Y7	Z7	X8	Y8	Z8	X9	Y9	Z9	X10	Y10	Z10	X11	Y11	Z11	X12	Y12	Z12	X13	Y13	Z13	X14	Y14	Z14	X15	Y15	Z15	X16	Y16	Z16	X17	Y17	Z17	X18	Y18	Z18	X19	Y19	Z19	X20	Y20	Z20	X21	Y21	Z21	X22	Y22	Z22	X23	Y23	Z23	X24	Y24	Z24	X25	Y25	Z25	X26	Y26	Z26	X27	Y27	Z27	X28	Y28	Z28	X29	Y29	Z29	X30	Y30	Z30	X31	Y31	Z31	X32	Y32	Z32	X33	Y33	Z33	X34	Y34	Z34	X35	Y35	Z35	X36	Y36	Z36	X37	Y37	Z37	X38	Y38	Z38	X39	Y39	Z39	X40	Y40	Z40	X41	Y41	Z41	X42	Y42	Z42	X43	Y43	Z43	X44	Y44	Z44
																																																																																																																																					
79	0.78	41.96335	1672.3562	-1504.3739	36.79153	1656	-1373.32532	-93.12256	1622.17712	-1511.04285	-96.65516	1611.34436	-1382.17908	-97.42589	1457.60181	-1454.5752	-121.9076	1128.17468	-1446.0249	14.41788	1383.93323	-1456.44214	61.07317	1210.29919	-1464.61633	-162.75858	1284.65149	-1372.41504	-50.38654	1413.9884	-1616.34131	-61.24647	1212.67688	-1688.15259	-68.48274	1100.11377	-1699.28333	-33.31006	954.02448	-1724.48962	44.57059	848.22705	-1687.37207	-18.52535	835.10101	-1719.33276	33.55349	760.7464	-1724.00073	-30.83426	1415.63672	-1294.82007	-76.49393	1226.5127	-1196.9845	-70.87447	1105.62659	-1177.34985	-39.66132	990.85693	-1155.56079	43.3624	864.07275	-1185.64343	-10.15259	856.77679	-1144.88037	39.0004	788.31439	-1142.35461	52.18222	970.22375	-1559.44055	58.41811	975.88879	-1341.20605	-104.53012	994.44708	-1529.18408	-93.14468	1001.81543	-1361.521	48.6418	660.74774	-1626.77478	102.22645	506.19833	-1609.24841	-28.18713	294.46094	-1599.11023	-107.37531	141.10081	-1561.33423	-143.75261	140.52946	-1509.98804	5.05056	54.30355	-1577.86938	-4.13377	638.21759	-1297.61377	-7.97952	512.52454	-1324.85547	-85.11581	254.1257	-1336.56641	-121.78239	74.77291	-1392.21606	-163.97362	53.01648	-1437.06812	28.72559	36.57921	-1392.37671	-59.35058	1711.05066	-1446.79248	NaN	NaN	NaN	NaN	NaN	NaN	NaN	NaN	NaN	NaN	NaN	NaN
80	0.79	57.0674	1670.96094	-1504.69739	51.99858	1654.88586	-1373.61523	-77.95739	1620.87012	-1511.30725	-81.46533	1610.29236	-1382.41052	-82.43832	1456.48535	-1454.49878	-107.23666	1126.79333	-1445.58093	29.13554	1382.50757	-1456.2356	75.62533	1208.80981	-1464.07092	-147.91452	1283.49719	-1371.80054	-35.52461	1412.35315	-1616.25586	-49.10014	1211.10706	-1687.83533	-58.24723	1098.6709	-1698.71851	-28.03356	951.8576	-1724.49768	45.7151	842.56543	-1687.16113	-18.13826	832.38232	-1719.69592	30.72005	755.39026	-1723.68811	-15.74224	1414.57495	-1294.64734	-60.2826	1225.50989	-1196.14258	-53.17291	1104.88159	-1176.08093	-18.03613	991.42896	-1154.77954	70.19767	868.63495	-1186.37354	16.60665	858.53583	-1145.15063	68.40943	792.30402	-1143.21008	67.49139	969.44855	-1558.33215	71.75127	973.95947	-1340.16968	-89.61922	993.35284	-1529.47131	-79.94565	1000.41016	-1361.49207	67.71583	661.5556	-1627.44849	123.32657	507.67703	-1609.29211	3.67003	288.62271	-1599.34949	-66.07521	130.68962	-1561.61707	-102.41951	127.77435	-1509.91589	51.42873	51.7886	-1579.93665	5.823	636.883	-1298.07861	-0.02502	511.1908	-1324.85156	-81.21521	253.89563	-1336.87305	-121.03108	75.13106	-1392.55859	-163.58308	53.74665	-1437.45361	29.15289	36.40476	-1392.25574	-44.12414	1709.83972	-1447.18811	NaN	NaN	NaN	NaN	NaN	NaN	NaN	NaN	NaN	NaN	NaN	NaN
81	0.8	72.2169	1669.34827	-1505.07593	67.19754	1653.49353	-1373.91931	-62.82886	1619.27368	-1511.50403	-66.2439	1608.94824	-1382.58838	-67.33227	1455.05579	-1454.26904	-92.58813	1125.20044	-1445.23328	44.05005	1380.87512	-1456.12036	90.23619	1207.11536	-1463.54089	-133.12387	1282.14441	-1371.1792	-20.52791	1410.49146	-1616.23425	-36.7477	1209.24609	-1687.51392	-47.9133	1097.01941	-1698.22449	-22.66976	949.24725	-1723.89282	46.68225	837.10699	-1686.95959	-17.27864	829.48572	-1719.45032	27.80351	750.48999	-1723.43286	-0.64271	1413.20862	-1294.49365	-44.21186	1224.151	-1195.38708	-35.50763	1103.96887	-1174.88086	3.52175	991.93549	-1154.27014	96.00793	872.9693	-1187.00537	43.12925	860.54053	-1145.45483	97.76919	796.5592	-1144.16284	82.77206	968.43359	-1557.32629	85.34591	971.96466	-1339.15881	-74.65504	991.91693	-1529.91101	-65.81473	998.58344	-1361.96826	87.51166	662.6601	-1628.6084	143.85501	508.80511	-1609.40076	35.67938	282.64044	-1599.71851	-23.69791	120.48245	-1562.26868	-59.27341	114.83324	-1510.14758	98.24594	49.90305	-1581.86853	16.29672	635.33893	-1298.63745	8.11445	509.63654	-1325.05334	-77.44985	253.52211	-1337.14063	-120.30909	75.53054	-1392.95532	-163.14679	54.40284	-1437.87097	29.55721	36.08585	-1392.51672	-28.9164	1708.31494	-1447.57349	NaN	NaN	NaN	NaN	NaN	NaN	NaN	NaN	NaN	NaN	NaN	NaN
82	0.81	87.56047	1667.50281	-1505.43286	82.42484	1651.82495	-1374.19958	-47.57301	1617.43835	-1511.76331	-50.97334	1607.28333	-1382.82324	-52.40305	1453.41138	-1454.35144	-78.00768	1123.45789	-1445.09399	58.96771	1378.90308	-1456.05359	104.82549	1205.10291	-1463.05212	-118.39692	1280.58215	-1370.62	-5.37074	1408.36829	-1616.28479	-24.1706	1207.2489	-1687.23071	-37.46128	1095.26563	-1697.79395	-17.05747	946.83545	-1723.56665	47.67781	831.83685	-1686.79443	-16.36028	826.9657	-1719.41052	25.2609	745.96906	-1723.25659	14.50223	1411.63489	-1294.38599	-27.99932	1222.60864	-1194.73889	-17.94845	1102.79993	-1173.76086	25.04902	992.44568	-1153.83459	121.55813	877.38849	-1187.69531	69.3513	862.58142	-1145.92273	126.52244	800.85382	-1145.27844	98.00309	967.09949	-1556.40698	99.09349	969.8457	-1338.31982	-59.65406	990.23108	-1530.5105	-51.85158	996.6778	-1362.58704	105.41783	662.13763	-1629.37036	163.8607	509.45108	-1609.49988	67.90804	276.64948	-1600.34375	19.10701	110.89219	-1563.06213	-15.93857	102.77755	-1510.7561	145.22253	48.84803	-1583.71692	26.93306	633.50403	-1299.35571	16.80098	507.92926	-1325.50024	-73.46227	253.11028	-1337.67188	-119.67541	76.01452	-1393.35156	-162.81879	55.09127	-1438.53406	29.59848	36.07764	-1392.19019	-13.65843	1706.57288	-1447.92688	NaN	NaN	NaN	NaN	NaN	NaN	NaN	NaN	NaN	NaN	NaN	NaN
83	0.82	102.84531	1665.35681	-1505.73743	97.82456	1649.87866	-1374.50818	-32.3363	1615.37817	-1511.96033	-35.56739	1605.3407	-1382.9917	-37.19984	1451.38916	-1454.30164	-63.44427	1121.49719	-1444.96851	73.96774	1376.71765	-1455.91394	119.3839	1202.80188	-1462.53137	-103.55939	1278.89001	-1370.18762	10.01698	1405.9071	-1616.2002	-11.37772	1205.04321	-1686.94092	-26.83066	1093.33374	-1697.2876	-11.34537	944.49518	-1723.23621	48.93956	826.97192	-1686.48254	-15.3749	824.9007	-1719.71765	22.89548	741.91785	-1723.14661	29.61312	1409.81616	-1294.35315	-11.79971	1220.802	-1194.13977	-0.36681	1101.45471	-1172.80042	46.11142	992.71899	-1153.38123	145.89885	881.45172	-1188.36145	95.24799	864.71924	-1146.51819	154.84271	805.45313	-1146.55798	113.12957	965.43976	-1555.65332	113.01294	967.60028	-1337.58081	-44.635	988.22296	-1531.14661	-37.84528	994.33966	-1362.98938	122.63857	661.48083	-1630.03723	183.17241	509.5434	-1609.60229	100.25968	270.69757	-1601.15173	62.35601	102.18615	-1564.22412	27.85045	91.68311	-1512.33118	192.85666	49.05482	-1585.00781	37.70792	631.47681	-1300.00208	25.53413	506.03192	-1325.99048	-69.62148	252.81725	-1338.30103	-118.90679	76.51981	-1393.82727	-162.32933	56.16675	-1438.87024	29.86858	35.96826	-1392.24219	1.662	1704.58667	-1448.26941	NaN	NaN	NaN	NaN	NaN	NaN	NaN	NaN	NaN	NaN	NaN	NaN
84	0.83	118.24245	1663.02747	-1506.04492	113.05951	1647.64185	-1374.7345	-17.01036	1613.11646	-1512.1991	-20.25391	1603.26746	-1383.31262	-22.06373	1449.23401	-1454.32214	-48.79031	1119.41504	-1444.95935	88.96798	1374.35974	-1455.8335	134.13106	1200.35974	-1462.18457	-88.76369	1277.05969	-1369.77222	25.31371	1403.43994	-1616.4115	1.52455	1202.64966	-1686.67261	-16.13521	1091.27771	-1696.76453	-5.4163	942.14203	-1722.82813	50.47989	822.34985	-1686.34973	-13.62994	822.59515	-1719.40369	20.96504	738.09027	-1723.09375	44.65514	1407.76196	-1294.36365	4.44041	1218.83386	-1193.6593	17.06232	1099.90833	-1171.98645	66.96468	993.02441	-1153.10522	170.37373	885.74438	-1189.32837	120.75053	866.96283	-1147.18713	182.53842	810.1756	-1147.75146	128.26672	963.57019	-1555.11401	126.91772	965.13721	-1336.97656	-29.65463	986.00531	-1531.83398	-23.73606	991.96112	-1363.56873	139.78456	660.47162	-1630.84082	201.5936	509.05869	-1609.77673	132.75722	264.85126	-1602.23999	106.10593	94.18218	-1565.69849	72.1238	81.45151	-1513.84448	240.03705	49.90192	-1585.90674	48.57425	629.34607	-1300.56494	34.43295	504.04504	-1326.57971	-65.36314	252.55988	-1339.09155	-118.09425	77.10568	-1394.36609	-161.83994	57.28661	-1439.53247	30.10974	35.85719	-1392.32068	17.0701	1702.36108	-1448.62988	NaN	NaN	NaN	NaN	NaN	NaN	NaN	NaN	NaN	NaN	NaN	NaN
85	0.84	133.6304	1660.48743	-1506.29749	128.52017	1645.27649	-1375.03345	-1.61492	1610.72986	-1512.5271	-4.94758	1600.98743	-1383.49817	-6.99939	1446.87048	-1454.53918	-34.11022	1117.15698	-1445.04175	104.08784	1371.8269	-1455.82593	148.98839	1197.82397	-1461.84961	-73.85687	1275.01318	-1369.54602	40.88898	1400.65759	-1616.552	14.64787	1200.08386	-1686.45093	-5.34958	1089.12366	-1696.2876	0.69846	939.94653	-1722.5354	52.45022	818.06464	-1686.49597	-11.66529	820.66705	-1719.2887	19.23685	735.02203	-1723.09143	59.67216	1405.54175	-1294.43958	20.67968	1216.69165	-1193.18628	34.35653	1098.1803	-1171.3136	87.55856	993.23206	-1152.96252	194.39288	890.11914	-1190.43896	145.81375	869.27557	-1148.01953	209.77538	814.97491	-1149.03979	143.4595	961.61542	-1554.77747	141.13411	962.53497	-1336.54285	-14.72131	983.56897	-1532.49536	-9.40712	989.40149	-1364.10852	156.05321	658.82648	-1631.12415	219.06377	507.92789	-1609.82764	165.42545	259.39859	-1603.55115	150.28175	87.34738	-1567.45129	116.68667	72.53986	-1515.64746	287.21747	51.68774	-1586.10913	59.54905	627.16254	-1301.03149	43.27092	501.98495	-1326.95398	-61.07782	252.27339	-1339.77356	-117.34744	77.85379	-1394.90942	-161.26563	58.45198	-1440.40662	30.27139	35.70541	-1392.45288	32.50751	1699.98596	-1449.00525	NaN	NaN	NaN	NaN	NaN	NaN	NaN	NaN	NaN	NaN	NaN	NaN
